<svg id="visual" viewBox="0 0 900 600" width="900" height="600" xmlns="http://www.w3.org/2000/svg" xmlns:xlink="http://www.w3.org/1999/xlink" version="1.1"><path d="M0 109L13.7 137C27.3 165 54.7 221 82 228C109.3 235 136.7 193 163.8 172C191 151 218 151 245.2 151C272.3 151 299.7 151 327 168C354.3 185 381.7 219 409 232C436.3 245 463.7 237 491 229C518.3 221 545.7 213 573 193C600.3 173 627.7 141 654.8 123C682 105 709 101 736.2 121C763.3 141 790.7 185 818 201C845.3 217 872.7 205 886.3 199L900 193L900 0L886.3 0C872.7 0 845.3 0 818 0C790.7 0 763.3 0 736.2 0C709 0 682 0 654.8 0C627.7 0 600.3 0 573 0C545.7 0 518.3 0 491 0C463.7 0 436.3 0 409 0C381.7 0 354.3 0 327 0C299.7 0 272.3 0 245.2 0C218 0 191 0 163.8 0C136.7 0 109.3 0 82 0C54.7 0 27.3 0 13.7 0L0 0Z" fill="#ffffff"></path><path d="M0 193L13.7 218C27.3 243 54.7 293 82 297C109.3 301 136.7 259 163.8 239C191 219 218 221 245.2 236C272.3 251 299.7 279 327 302C354.3 325 381.7 343 409 347C436.3 351 463.7 341 491 337C518.3 333 545.7 335 573 315C600.3 295 627.7 253 654.8 226C682 199 709 187 736.2 210C763.3 233 790.7 291 818 306C845.3 321 872.7 293 886.3 279L900 265L900 191L886.3 197C872.7 203 845.3 215 818 199C790.7 183 763.3 139 736.2 119C709 99 682 103 654.8 121C627.7 139 600.3 171 573 191C545.7 211 518.3 219 491 227C463.7 235 436.3 243 409 230C381.7 217 354.3 183 327 166C299.7 149 272.3 149 245.2 149C218 149 191 149 163.8 170C136.7 191 109.3 233 82 226C54.7 219 27.3 163 13.7 135L0 107Z" fill="#fbfbfb"></path><path d="M0 253L13.7 275C27.3 297 54.7 341 82 357C109.3 373 136.7 361 163.8 341C191 321 218 293 245.2 298C272.3 303 299.7 341 327 368C354.3 395 381.7 411 409 422C436.3 433 463.7 439 491 432C518.3 425 545.7 405 573 381C600.3 357 627.7 329 654.8 304C682 279 709 257 736.2 281C763.3 305 790.7 375 818 392C845.3 409 872.7 373 886.3 355L900 337L900 263L886.3 277C872.7 291 845.3 319 818 304C790.7 289 763.3 231 736.2 208C709 185 682 197 654.8 224C627.7 251 600.3 293 573 313C545.7 333 518.3 331 491 335C463.7 339 436.3 349 409 345C381.7 341 354.3 323 327 300C299.7 277 272.3 249 245.2 234C218 219 191 217 163.8 237C136.7 257 109.3 299 82 295C54.7 291 27.3 241 13.7 216L0 191Z" fill="#eeeeee"></path><path d="M0 517L13.7 519C27.3 521 54.7 525 82 533C109.3 541 136.7 553 163.8 549C191 545 218 525 245.2 524C272.3 523 299.7 541 327 549C354.3 557 381.7 555 409 551C436.3 547 463.7 541 491 533C518.3 525 545.7 515 573 509C600.3 503 627.7 501 654.8 504C682 507 709 515 736.2 524C763.3 533 790.7 543 818 550C845.3 557 872.7 561 886.3 563L900 565L900 335L886.3 353C872.7 371 845.3 407 818 390C790.7 373 763.3 303 736.2 279C709 255 682 277 654.8 302C627.7 327 600.3 355 573 379C545.7 403 518.3 423 491 430C463.7 437 436.3 431 409 420C381.7 409 354.3 393 327 366C299.7 339 272.3 301 245.2 296C218 291 191 319 163.8 339C136.7 359 109.3 371 82 355C54.7 339 27.3 295 13.7 273L0 251Z" fill="#fbfbfb"></path><path d="M0 601L13.7 601C27.3 601 54.7 601 82 601C109.3 601 136.7 601 163.8 601C191 601 218 601 245.2 601C272.3 601 299.7 601 327 601C354.3 601 381.7 601 409 601C436.3 601 463.7 601 491 601C518.3 601 545.7 601 573 601C600.3 601 627.7 601 654.8 601C682 601 709 601 736.2 601C763.3 601 790.7 601 818 601C845.3 601 872.7 601 886.3 601L900 601L900 563L886.3 561C872.7 559 845.3 555 818 548C790.7 541 763.3 531 736.2 522C709 513 682 505 654.8 502C627.7 499 600.3 501 573 507C545.7 513 518.3 523 491 531C463.7 539 436.3 545 409 549C381.7 553 354.3 555 327 547C299.7 539 272.3 521 245.2 522C218 523 191 543 163.8 547C136.7 551 109.3 539 82 531C54.7 523 27.3 519 13.7 517L0 515Z" fill="#ffffff"></path></svg>