<svg id="visual" viewBox="0 0 900 600" width="900" height="600" xmlns="http://www.w3.org/2000/svg" xmlns:xlink="http://www.w3.org/1999/xlink" version="1.1"><rect x="0" y="0" width="900" height="600" fill="#16423C"></rect><defs><linearGradient id="grad1_0" x1="33.3%" y1="0%" x2="100%" y2="100%"><stop offset="20%" stop-color="#16423c" stop-opacity="1"></stop><stop offset="80%" stop-color="#16423c" stop-opacity="1"></stop></linearGradient></defs><defs><linearGradient id="grad2_0" x1="0%" y1="0%" x2="66.7%" y2="100%"><stop offset="20%" stop-color="#16423c" stop-opacity="1"></stop><stop offset="80%" stop-color="#16423c" stop-opacity="1"></stop></linearGradient></defs><g transform="translate(900, 0)"><path d="M0 270.4C-33.9 259.8 -67.9 249.2 -96.8 233.7C-125.8 218.3 -149.8 198.1 -176.8 176.8C-203.8 155.5 -233.7 133.1 -249.8 103.5C-265.9 73.8 -268.2 36.9 -270.4 0L0 0Z" fill="#E0A75E"></path></g><g transform="translate(0, 600)"><path d="M0 -270.4C35.4 -263.3 70.7 -256.1 99.5 -240.2C128.3 -224.3 150.5 -199.7 176.8 -176.8C203.1 -153.9 233.5 -132.7 249.8 -103.5C266.1 -74.3 268.3 -37.2 270.4 0L0 0Z" fill="#E0A75E"></path></g></svg>