<svg id="visual" viewBox="0 0 900 600" width="900" height="600" xmlns="http://www.w3.org/2000/svg" xmlns:xlink="http://www.w3.org/1999/xlink" version="1.1"><rect x="0" y="0" width="900" height="600" fill="#16423C"></rect><defs><linearGradient id="grad1_0" x1="33.3%" y1="100%" x2="100%" y2="0%"><stop offset="20%" stop-color="#16423c" stop-opacity="1"></stop><stop offset="80%" stop-color="#16423c" stop-opacity="1"></stop></linearGradient></defs><defs><linearGradient id="grad2_0" x1="0%" y1="100%" x2="66.7%" y2="0%"><stop offset="20%" stop-color="#16423c" stop-opacity="1"></stop><stop offset="80%" stop-color="#16423c" stop-opacity="1"></stop></linearGradient></defs><g transform="translate(900, 600)"><path d="M-297.5 0C-248.1 -27.7 -198.8 -55.5 -180.1 -104C-161.5 -152.5 -173.6 -221.9 -148.7 -257.6C-123.8 -293.3 -61.9 -295.4 0 -297.5L0 0Z" fill="#E0A75E"></path></g><g transform="translate(0, 0)"><path d="M297.5 0C293.4 58.5 289.3 116.9 257.6 148.7C225.9 180.6 166.5 185.8 119 206.1C71.5 226.5 35.7 262 0 297.5L0 0Z" fill="#E0A75E"></path></g></svg>