<svg id="visual" viewBox="0 0 960 540" width="960" height="540" xmlns="http://www.w3.org/2000/svg" xmlns:xlink="http://www.w3.org/1999/xlink" version="1.1"><rect x="0" y="0" width="960" height="540" fill="#6A9C89"></rect><defs><linearGradient id="grad1_0" x1="43.8%" y1="100%" x2="100%" y2="0%"><stop offset="14.444444444444446%" stop-color="#6a9c89" stop-opacity="1"></stop><stop offset="85.55555555555554%" stop-color="#6a9c89" stop-opacity="1"></stop></linearGradient></defs><defs><linearGradient id="grad2_0" x1="0%" y1="100%" x2="56.3%" y2="0%"><stop offset="14.444444444444446%" stop-color="#6a9c89" stop-opacity="1"></stop><stop offset="85.55555555555554%" stop-color="#6a9c89" stop-opacity="1"></stop></linearGradient></defs><g transform="translate(960, 540)"><path d="M-486 0C-435.3 -20.3 -384.7 -40.5 -358.5 -56.8C-332.4 -73 -330.8 -85.2 -354.7 -115.3C-378.7 -145.3 -428.2 -193.2 -433 -220.6C-437.9 -248.1 -398.1 -255.1 -376.2 -273.3C-354.3 -291.6 -350.4 -321 -318.2 -318.2C-286 -315.4 -225.5 -280.2 -191 -262.9C-156.6 -245.7 -148.1 -246.3 -148 -290.5C-147.9 -334.6 -156 -422.3 -140.6 -432.7C-125.2 -443.2 -86.3 -376.4 -59 -372.4C-31.6 -368.4 -15.8 -427.2 0 -486L0 0Z" fill="#16423C"></path></g><g transform="translate(0, 0)"><path d="M486 0C491.2 27.2 496.4 54.4 480 76C463.6 97.7 425.6 113.9 401.3 130.4C377.1 146.9 366.7 163.8 356.4 181.6C346.1 199.4 335.8 218.1 322.8 234.5C309.8 250.9 294.1 265 275.8 275.8C257.5 286.6 236.6 294.1 219.2 301.8C201.8 309.4 187.9 317.1 176.6 346.6C165.3 376.2 156.7 427.6 134.1 412.8C111.5 397.9 75 316.9 50.4 318C25.7 319.2 12.8 402.6 0 486L0 0Z" fill="#16423C"></path></g></svg>