<svg id="visual" viewBox="0 0 900 600" width="900" height="600" xmlns="http://www.w3.org/2000/svg" xmlns:xlink="http://www.w3.org/1999/xlink" version="1.1"><rect width="900" height="600" fill="#E0A75E"></rect><g><g transform="translate(384 294)"><path d="M67.5 -17.7C77.1 7.5 67.2 43.2 43.6 60.4C20.1 77.6 -17.2 76.2 -38.7 59.2C-60.1 42.2 -65.8 9.5 -56.8 -15C-47.7 -39.5 -23.9 -55.8 2.6 -56.6C29 -57.4 58 -42.8 67.5 -17.7Z" stroke="#D6C17B" fill="none" stroke-width="35"></path></g><g transform="translate(159 382)"><path d="M41.7 -12C47.9 5.7 42.7 28.6 26.8 41.2C11 53.7 -15.5 55.8 -32.4 43.7C-49.3 31.6 -56.6 5.4 -49.6 -13.3C-42.6 -32 -21.3 -43.3 -1.8 -42.7C17.7 -42.1 35.4 -29.7 41.7 -12Z" stroke="#D6C17B" fill="none" stroke-width="35"></path></g><g transform="translate(736 263)"><path d="M50.2 -19.1C58.3 8.6 53.4 37.7 33.2 54.4C13.1 71 -22.4 75.3 -40.8 60.8C-59.3 46.3 -60.9 13 -51.2 -16.8C-41.6 -46.6 -20.8 -73 0.1 -73C21 -73.1 42.1 -46.8 50.2 -19.1Z" stroke="#D6C17B" fill="none" stroke-width="35"></path></g><g transform="translate(634 471)"><path d="M36.9 -12.3C42.5 5.3 38 25.8 25.3 35.1C12.5 44.5 -8.6 42.7 -21.1 32.8C-33.6 22.8 -37.6 4.7 -32.6 -12.1C-27.6 -28.8 -13.8 -44.1 0.9 -44.4C15.6 -44.7 31.3 -30 36.9 -12.3Z" stroke="#D6C17B" fill="none" stroke-width="35"></path></g><g transform="translate(204 142)"><path d="M41.5 -14.9C47.7 5.5 42.3 28.2 27.2 39.6C12.2 51 -12.6 51.2 -30 39.1C-47.5 26.9 -57.6 2.4 -51.4 -18C-45.2 -38.5 -22.6 -55 -2.5 -54.2C17.7 -53.4 35.4 -35.3 41.5 -14.9Z" stroke="#D6C17B" fill="none" stroke-width="35"></path></g></g></svg>