<svg id="visual" viewBox="0 0 900 600" width="900" height="600" xmlns="http://www.w3.org/2000/svg" xmlns:xlink="http://www.w3.org/1999/xlink" version="1.1"><rect x="0" y="0" width="900" height="600" fill="#16423C"></rect><defs><linearGradient id="grad1_0" x1="33.3%" y1="100%" x2="100%" y2="0%"><stop offset="20%" stop-color="#16423c" stop-opacity="1"></stop><stop offset="80%" stop-color="#16423c" stop-opacity="1"></stop></linearGradient></defs><defs><linearGradient id="grad2_0" x1="0%" y1="100%" x2="66.7%" y2="0%"><stop offset="20%" stop-color="#16423c" stop-opacity="1"></stop><stop offset="80%" stop-color="#16423c" stop-opacity="1"></stop></linearGradient></defs><g transform="translate(900, 600)"><path d="M-378.6 0C-330.2 -43.6 -281.8 -87.3 -256.3 -148C-230.8 -208.7 -228.2 -286.6 -189.3 -327.9C-150.4 -369.1 -75.2 -373.9 0 -378.6L0 0Z" fill="#E0A75E"></path></g><g transform="translate(0, 0)"><path d="M378.6 0C374.5 76.2 370.3 152.5 327.9 189.3C285.4 226.1 204.5 223.6 143.5 248.5C82.5 273.5 41.2 326.1 0 378.6L0 0Z" fill="#E0A75E"></path></g></svg>