<svg id="visual" viewBox="0 0 900 600" width="900" height="600" xmlns="http://www.w3.org/2000/svg" xmlns:xlink="http://www.w3.org/1999/xlink" version="1.1"><rect width="900" height="600" fill="#F9D689"></rect><g><g transform="translate(531 431)"><path d="M103.3 -37.3C114.5 0.9 90.9 46.7 54.8 72.2C18.6 97.7 -29.9 102.9 -62.2 80.7C-94.4 58.4 -110.2 8.7 -97.1 -32.1C-84 -72.9 -42 -104.9 2 -105.6C46.1 -106.2 92.1 -75.6 103.3 -37.3Z" stroke="#E0A75E" fill="none" stroke-width="20"></path></g><g transform="translate(620 147)"><path d="M89.7 -26C102.1 9 88.2 55.7 58.5 76.4C28.7 97 -17 91.6 -48.5 68.4C-79.9 45.1 -97.2 3.9 -86.8 -28.4C-76.4 -60.8 -38.2 -84.4 0.2 -84.5C38.6 -84.5 77.3 -61.1 89.7 -26Z" stroke="#E0A75E" fill="none" stroke-width="20"></path></g><g transform="translate(170 384)"><path d="M89.3 -28.1C102.8 12.4 91.8 61.9 62.2 82.6C32.7 103.4 -15.5 95.5 -50.3 70.1C-85 44.6 -106.3 1.6 -95.7 -35C-85.1 -71.6 -42.5 -101.7 -2.3 -101C37.9 -100.2 75.8 -68.6 89.3 -28.1Z" stroke="#E0A75E" fill="none" stroke-width="20"></path></g></g></svg>